{
	"asset":{
		"version":"2.0",
		"generator":"Created using the official Cinema 4D glTF Exporter 1.000x284978"
	},
	"images":[{
		"uri":"data:image/jpeg;base64,"
	}],
	"scenes":[{
		"nodes":[0]
	}],
	"materials":[{
		"pbrMetallicRoughness":{
			"baseColorFactor":[1.0,
			1.0,
			1.0,
			1.0],
			"metallicFactor":0.0,
			"roughnessFactor":0.5
		},
		"emissiveFactor":[0.0,
		0.0,
		0.0],
		"alphaMode":"OPAQUE",
		"doubleSided":false,
		"name":"Mat.1"
	},
	{
		"pbrMetallicRoughness":{
			"baseColorTexture":{
				"index":0
			},
			"baseColorFactor":[0.8,
			0.8,
			0.8,
			1.0],
			"metallicFactor":0.0,
			"roughnessFactor":0.5
		},
		"emissiveFactor":[0.0,
		0.0,
		0.0],
		"alphaMode":"OPAQUE",
		"doubleSided":false,
		"name":"Mat.2"
	}],
	"meshes":[{
		"name":"rand",
		"primitives":[{
			"attributes":{
				"POSITION":1,
				"NORMAL":2,
				"TEXCOORD_0":3
			},
			"indices":0,
			"material":0
		}]
	},
	{
		"name":"node",
		"primitives":[{
			"attributes":{
				"POSITION":5,
				"NORMAL":6,
				"TEXCOORD_0":7
			},
			"indices":4,
			"material":1
		}]
	}],
	"nodes":[{
		"name":"bord",
		"translation":[-16.421283721923829,
		-50.11735534667969,
		31.549762725830079],
		"rotation":[0.0,
		-0.7071067690849304,
		0.0,
		0.7071067690849304],
		"scale":[1.0,
		1.0,
		1.0],
		"children":[1,
		2]
	},
	{
		"name":"rand",
		"translation":[0.29647356271743777,
		175.2845916748047,
		-110.5627670288086],
		"rotation":[0.0,
		0.0,
		0.0,
		-1.0],
		"scale":[1.0,
		1.0,
		1.0],
		"mesh":0
	},
	{
		"name":"node",
		"translation":[0.29647356271743777,
		175.2845916748047,
		-109.88435363769531],
		"rotation":[0.0,
		0.0,
		0.0,
		-1.0],
		"scale":[1.0,
		1.0,
		1.0],
		"mesh":1
	}],
	"accessors":[{
		"type":"SCALAR",
		"bufferView":0,
		"componentType":5123,
		"count":690,
		"byteOffset":0,
		"min":[0],
		"max":[189]
	},
	{
		"type":"VEC3",
		"bufferView":1,
		"componentType":5126,
		"count":190,
		"byteOffset":0,
		"min":[-42.97919464111328,
		-23.36452865600586,
		-1.1538039445877076],
		"max":[42.97919464111328,
		23.36452865600586,
		1.1538039445877076]
	},
	{
		"type":"VEC3",
		"bufferView":1,
		"componentType":5126,
		"count":190,
		"byteOffset":12,
		"min":[-0.9832745790481567,
		-0.986511766910553,
		-0.9832738637924194],
		"max":[0.9832745790481567,
		0.9865118265151978,
		1.0]
	},
	{
		"type":"VEC2",
		"bufferView":1,
		"componentType":5126,
		"count":190,
		"byteOffset":24,
		"min":[0.0,
		0.0],
		"max":[1.0,
		1.0]
	},
	{
		"type":"SCALAR",
		"bufferView":2,
		"componentType":5123,
		"count":498,
		"byteOffset":0,
		"min":[0],
		"max":[159]
	},
	{
		"type":"VEC3",
		"bufferView":3,
		"componentType":5126,
		"count":160,
		"byteOffset":0,
		"min":[-40.67523956298828,
		-22.112041473388673,
		-1.0919526815414429],
		"max":[40.67523956298828,
		22.112041473388673,
		0.4753894805908203]
	},
	{
		"type":"VEC3",
		"bufferView":3,
		"componentType":5126,
		"count":160,
		"byteOffset":12,
		"min":[-0.9832740426063538,
		-0.986511766910553,
		-0.36150607466697695],
		"max":[0.9877432584762573,
		0.9865117073059082,
		0.9832740426063538]
	},
	{
		"type":"VEC2",
		"bufferView":3,
		"componentType":5126,
		"count":160,
		"byteOffset":24,
		"min":[0.0,
		0.0],
		"max":[1.0,
		1.0]
	}],
	"bufferViews":[{
		"buffer":0,
		"byteOffset":0,
		"byteLength":1380,
		"target":34963
	},
	{
		"buffer":0,
		"byteOffset":1380,
		"byteLength":6080,
		"target":34962,
		"byteStride":32
	},
	{
		"buffer":1,
		"byteOffset":0,
		"byteLength":996,
		"target":34963
	},
	{
		"buffer":1,
		"byteOffset":996,
		"byteLength":5120,
		"target":34962,
		"byteStride":32
	}],
	"buffers":[{
		"uri":"data:application/octet-stream;base64,",
		"byteLength":7460
	},
	{
		"uri":"data:application/octet-stream;base64,",
		"byteLength":6116
	}],
	"samplers":[{
		"magFilter":9729,
		"minFilter":9729,
		"wrapS":10497,
		"wrapT":10497
	}],
	"textures":[{
		"sampler":0,
		"source":0
	}]
}