{
	"asset":{
		"version":"2.0",
		"generator":"Created using the official Cinema 4D glTF Exporter 1.000x284978"
	},
	"images":[{
		"uri":"data:image/jpeg;base64,"
	}],
	"scenes":[{
		"nodes":[0]
	}],
	"materials":[{
		"pbrMetallicRoughness":{
			"baseColorTexture":{
				"index":0
			},
			"baseColorFactor":[0.8,
			0.8,
			0.8,
			1.0],
			"metallicFactor":0.0,
			"roughnessFactor":0.5
		},
		"emissiveFactor":[0.0,
		0.0,
		0.0],
		"alphaMode":"OPAQUE",
		"doubleSided":false,
		"name":"Mat.3"
	}],
	"meshes":[{
		"name":"playground",
		"primitives":[{
			"attributes":{
				"POSITION":1,
				"NORMAL":2,
				"TEXCOORD_0":3
			},
			"indices":0,
			"material":0
		}]
	}],
	"nodes":[{
		"name":"playground",
		"translation":[-5.846738338470459,
		57.19438552856445,
		40.72659683227539],
		"rotation":[0.0,
		0.0,
		0.0,
		-1.0],
		"scale":[1.0,
		1.0,
		1.0],
		"mesh":0
	}],
	"accessors":[{
		"type":"SCALAR",
		"bufferView":0,
		"componentType":5123,
		"count":612,
		"byteOffset":0,
		"min":[0],
		"max":[205]
	},
	{
		"type":"VEC3",
		"bufferView":1,
		"componentType":5126,
		"count":206,
		"byteOffset":0,
		"min":[-44.11634063720703,
		-0.668429434299469,
		-44.56196212768555],
		"max":[44.11634063720703,
		0.668429434299469,
		44.56196212768555]
	},
	{
		"type":"VEC3",
		"bufferView":1,
		"componentType":5126,
		"count":206,
		"byteOffset":12,
		"min":[-0.9625011682510376,
		-0.9865116477012634,
		-0.9625013470649719],
		"max":[0.9625011682510376,
		0.9865116477012634,
		0.9625013470649719]
	},
	{
		"type":"VEC2",
		"bufferView":1,
		"componentType":5126,
		"count":206,
		"byteOffset":24,
		"min":[0.0,
		0.0],
		"max":[1.0,
		1.0]
	}],
	"bufferViews":[{
		"buffer":0,
		"byteOffset":0,
		"byteLength":1224,
		"target":34963
	},
	{
		"buffer":0,
		"byteOffset":1224,
		"byteLength":6592,
		"target":34962,
		"byteStride":32
	}],
	"buffers":[{
		"uri":"data:application/octet-stream;base64,",
		"byteLength":7816
	}],
	"samplers":[{
		"magFilter":9729,
		"minFilter":9729,
		"wrapS":10497,
		"wrapT":10497
	}],
	"textures":[{
		"sampler":0,
		"source":0
	}]
}