{
	"asset":{
		"version":"2.0",
		"generator":"Created using the official Cinema 4D glTF Exporter 1.000x284978"
	},
	"scenes":[{
		"nodes":[0]
	}],
	"materials":[{
		"pbrMetallicRoughness":{
			"baseColorFactor":[0.8,
			0.7376,
			0.512,
			1.0],
			"metallicFactor":0.0,
			"roughnessFactor":0.5
		},
		"emissiveFactor":[0.0,
		0.0,
		0.0],
		"alphaMode":"OPAQUE",
		"doubleSided":false,
		"name":"Mat.5"
	},
	{
		"pbrMetallicRoughness":{
			"baseColorFactor":[0.8,
			0.5833333333333334,
			0.2799999999999999,
			1.0],
			"metallicFactor":0.0,
			"roughnessFactor":0.5
		},
		"emissiveFactor":[0.0,
		0.0,
		0.0],
		"alphaMode":"OPAQUE",
		"doubleSided":false,
		"name":"Mat.4"
	}],
	"meshes":[{
		"name":"Cube.4 0",
		"primitives":[{
			"attributes":{
				"POSITION":1,
				"NORMAL":2,
				"TEXCOORD_0":3
			},
			"indices":0,
			"material":0
		}]
	},
	{
		"name":"Cube.4 1",
		"primitives":[{
			"attributes":{
				"POSITION":5,
				"NORMAL":6,
				"TEXCOORD_0":7
			},
			"indices":4,
			"material":0
		}]
	},
	{
		"name":"Cube.4 2",
		"primitives":[{
			"attributes":{
				"POSITION":9,
				"NORMAL":10,
				"TEXCOORD_0":11
			},
			"indices":8,
			"material":0
		}]
	},
	{
		"name":"Cube.4 3",
		"primitives":[{
			"attributes":{
				"POSITION":13,
				"NORMAL":14,
				"TEXCOORD_0":15
			},
			"indices":12,
			"material":0
		}]
	},
	{
		"name":"Cube.4 4",
		"primitives":[{
			"attributes":{
				"POSITION":17,
				"NORMAL":18,
				"TEXCOORD_0":19
			},
			"indices":16,
			"material":0
		}]
	},
	{
		"name":"Cube.4 5",
		"primitives":[{
			"attributes":{
				"POSITION":21,
				"NORMAL":22,
				"TEXCOORD_0":23
			},
			"indices":20,
			"material":0
		}]
	},
	{
		"name":"Cube.4 6",
		"primitives":[{
			"attributes":{
				"POSITION":25,
				"NORMAL":26,
				"TEXCOORD_0":27
			},
			"indices":24,
			"material":0
		}]
	},
	{
		"name":"Cylinder",
		"primitives":[{
			"attributes":{
				"POSITION":29,
				"NORMAL":30,
				"TEXCOORD_0":31
			},
			"indices":28,
			"material":0
		}]
	},
	{
		"name":"Relief",
		"primitives":[{
			"attributes":{
				"POSITION":33,
				"NORMAL":34,
				"TEXCOORD_0":35
			},
			"indices":32,
			"material":0
		}]
	},
	{
		"name":"Cube.4",
		"primitives":[{
			"attributes":{
				"POSITION":37,
				"NORMAL":38,
				"TEXCOORD_0":39
			},
			"indices":36,
			"material":1
		}]
	},
	{
		"name":"Cube.5",
		"primitives":[{
			"attributes":{
				"POSITION":41,
				"NORMAL":42,
				"TEXCOORD_0":43
			},
			"indices":40,
			"material":1
		}]
	}],
	"nodes":[{
		"name":"zandbak",
		"translation":[-6.623354911804199,
		45.45098876953125,
		-121.03697204589844],
		"rotation":[0.0,
		0.0,
		0.0,
		-1.0],
		"scale":[1.0,
		1.0,
		1.0],
		"children":[1,
		11,
		13]
	},
	{
		"name":"zandkasteel",
		"translation":[-37.53433609008789,
		25.466522216796876,
		51.85496139526367],
		"rotation":[0.0,
		0.0,
		0.0,
		-1.0],
		"scale":[1.0,
		1.0,
		1.0],
		"children":[2,
		10]
	},
	{
		"name":"Cloner",
		"translation":[-0.10810461640357971,
		4.4830732345581059,
		-0.05443667247891426],
		"rotation":[0.0,
		0.0,
		0.0,
		-1.0],
		"scale":[1.0,
		1.0,
		1.0],
		"children":[3,
		4,
		5,
		6,
		7,
		8,
		9]
	},
	{
		"name":"Cube.4 0",
		"translation":[0.0,
		0.0,
		-5.710942268371582],
		"rotation":[0.0,
		0.0,
		0.0,
		-1.0],
		"scale":[1.0,
		1.0,
		1.0],
		"mesh":0
	},
	{
		"name":"Cube.4 1",
		"translation":[4.464994430541992,
		0.0,
		-3.5607142448425295],
		"rotation":[0.0,
		-0.4338837265968323,
		0.0,
		0.9009688496589661],
		"scale":[1.0,
		1.0,
		1.0],
		"mesh":1
	},
	{
		"name":"Cube.4 2",
		"translation":[5.5677571296691898,
		0.0,
		1.2708041667938233],
		"rotation":[0.0,
		-0.7818315029144287,
		0.0,
		0.6234897971153259],
		"scale":[1.0,
		1.0,
		1.0],
		"mesh":2
	},
	{
		"name":"Cube.4 3",
		"translation":[2.4778850078582765,
		0.0,
		5.145380973815918],
		"rotation":[0.0,
		-0.9749279022216797,
		0.0,
		0.22252093255519868],
		"scale":[1.0,
		1.0,
		1.0],
		"mesh":3
	},
	{
		"name":"Cube.4 4",
		"translation":[-2.4778850078582765,
		0.0,
		5.145380973815918],
		"rotation":[7.263778911692498e-9,
		-0.9749279022216797,
		1.657910142505159e-9,
		-0.22252093255519868],
		"scale":[1.0,
		1.0,
		1.0],
		"mesh":4
	},
	{
		"name":"Cube.4 5",
		"translation":[-5.5677571296691898,
		0.0,
		1.2708041667938233],
		"rotation":[0.0,
		-0.7818315029144287,
		0.0,
		-0.6234897971153259],
		"scale":[1.0,
		1.0,
		1.0],
		"mesh":5
	},
	{
		"name":"Cube.4 6",
		"translation":[-4.464994430541992,
		0.0,
		-3.5607142448425295],
		"rotation":[0.0,
		-0.4338837265968323,
		0.0,
		-0.9009688496589661],
		"scale":[1.0,
		1.0,
		1.0],
		"mesh":6
	},
	{
		"name":"Cylinder",
		"translation":[0.012555810622870922,
		-4.04400110244751,
		0.05443667247891426],
		"rotation":[0.0,
		0.0,
		0.0,
		-1.0],
		"scale":[1.0,
		1.0,
		1.0],
		"mesh":7
	},
	{
		"name":"zand",
		"translation":[23.355566024780275,
		-17.111387252807618,
		-25.927480697631837],
		"rotation":[0.0,
		0.0,
		0.0,
		-1.0],
		"scale":[1.0,
		1.0,
		1.0],
		"children":[12]
	},
	{
		"name":"Relief",
		"translation":[-63.311561584472659,
		9.388014793395996,
		51.695804595947269],
		"rotation":[0.0,
		0.0,
		0.0,
		-1.0],
		"scale":[1.0,
		1.0,
		1.0],
		"mesh":8
	},
	{
		"name":"bak",
		"translation":[28.07996940612793,
		-17.36457633972168,
		-25.927480697631837],
		"rotation":[0.0,
		0.0,
		0.0,
		-1.0],
		"scale":[1.0,
		1.0,
		1.0],
		"children":[14,
		15]
	},
	{
		"name":"Cube.4",
		"translation":[-68.57725524902344,
		34.30634689331055,
		82.01679229736328],
		"rotation":[0.0,
		0.0,
		0.0,
		-1.0],
		"scale":[1.0,
		1.0,
		1.0],
		"mesh":9
	},
	{
		"name":"Cube.5",
		"translation":[-68.57725524902344,
		23.408422470092775,
		82.01679229736328],
		"rotation":[0.0,
		0.0,
		0.0,
		-1.0],
		"scale":[1.0,
		1.0,
		1.0],
		"mesh":10
	}],
	"accessors":[{
		"type":"SCALAR",
		"bufferView":0,
		"componentType":5123,
		"count":612,
		"byteOffset":0,
		"min":[0],
		"max":[165]
	},
	{
		"type":"VEC3",
		"bufferView":1,
		"componentType":5126,
		"count":166,
		"byteOffset":0,
		"min":[-1.1421884298324586,
		-1.9988298416137696,
		-0.5710942149162293],
		"max":[1.1421884298324586,
		1.9988298416137696,
		0.5710942149162293]
	},
	{
		"type":"VEC3",
		"bufferView":1,
		"componentType":5126,
		"count":166,
		"byteOffset":12,
		"min":[-0.983273983001709,
		-0.9865115880966187,
		-0.983273983001709],
		"max":[0.983273983001709,
		0.9865115880966187,
		0.983273983001709]
	},
	{
		"type":"VEC2",
		"bufferView":1,
		"componentType":5126,
		"count":166,
		"byteOffset":24,
		"min":[0.0,
		0.0],
		"max":[1.0,
		1.0]
	},
	{
		"type":"SCALAR",
		"bufferView":2,
		"componentType":5123,
		"count":612,
		"byteOffset":0,
		"min":[0],
		"max":[165]
	},
	{
		"type":"VEC3",
		"bufferView":3,
		"componentType":5126,
		"count":166,
		"byteOffset":0,
		"min":[-1.1421884298324586,
		-1.9988298416137696,
		-0.5710942149162293],
		"max":[1.1421884298324586,
		1.9988298416137696,
		0.5710942149162293]
	},
	{
		"type":"VEC3",
		"bufferView":3,
		"componentType":5126,
		"count":166,
		"byteOffset":12,
		"min":[-0.983273983001709,
		-0.9865115880966187,
		-0.983273983001709],
		"max":[0.983273983001709,
		0.9865115880966187,
		0.983273983001709]
	},
	{
		"type":"VEC2",
		"bufferView":3,
		"componentType":5126,
		"count":166,
		"byteOffset":24,
		"min":[0.0,
		0.0],
		"max":[1.0,
		1.0]
	},
	{
		"type":"SCALAR",
		"bufferView":4,
		"componentType":5123,
		"count":612,
		"byteOffset":0,
		"min":[0],
		"max":[165]
	},
	{
		"type":"VEC3",
		"bufferView":5,
		"componentType":5126,
		"count":166,
		"byteOffset":0,
		"min":[-1.1421884298324586,
		-1.9988298416137696,
		-0.5710942149162293],
		"max":[1.1421884298324586,
		1.9988298416137696,
		0.5710942149162293]
	},
	{
		"type":"VEC3",
		"bufferView":5,
		"componentType":5126,
		"count":166,
		"byteOffset":12,
		"min":[-0.983273983001709,
		-0.9865115880966187,
		-0.983273983001709],
		"max":[0.983273983001709,
		0.9865115880966187,
		0.983273983001709]
	},
	{
		"type":"VEC2",
		"bufferView":5,
		"componentType":5126,
		"count":166,
		"byteOffset":24,
		"min":[0.0,
		0.0],
		"max":[1.0,
		1.0]
	},
	{
		"type":"SCALAR",
		"bufferView":6,
		"componentType":5123,
		"count":612,
		"byteOffset":0,
		"min":[0],
		"max":[165]
	},
	{
		"type":"VEC3",
		"bufferView":7,
		"componentType":5126,
		"count":166,
		"byteOffset":0,
		"min":[-1.1421884298324586,
		-1.9988298416137696,
		-0.5710942149162293],
		"max":[1.1421884298324586,
		1.9988298416137696,
		0.5710942149162293]
	},
	{
		"type":"VEC3",
		"bufferView":7,
		"componentType":5126,
		"count":166,
		"byteOffset":12,
		"min":[-0.983273983001709,
		-0.9865115880966187,
		-0.983273983001709],
		"max":[0.983273983001709,
		0.9865115880966187,
		0.983273983001709]
	},
	{
		"type":"VEC2",
		"bufferView":7,
		"componentType":5126,
		"count":166,
		"byteOffset":24,
		"min":[0.0,
		0.0],
		"max":[1.0,
		1.0]
	},
	{
		"type":"SCALAR",
		"bufferView":8,
		"componentType":5123,
		"count":612,
		"byteOffset":0,
		"min":[0],
		"max":[165]
	},
	{
		"type":"VEC3",
		"bufferView":9,
		"componentType":5126,
		"count":166,
		"byteOffset":0,
		"min":[-1.1421884298324586,
		-1.9988298416137696,
		-0.5710942149162293],
		"max":[1.1421884298324586,
		1.9988298416137696,
		0.5710942149162293]
	},
	{
		"type":"VEC3",
		"bufferView":9,
		"componentType":5126,
		"count":166,
		"byteOffset":12,
		"min":[-0.983273983001709,
		-0.9865115880966187,
		-0.983273983001709],
		"max":[0.983273983001709,
		0.9865115880966187,
		0.983273983001709]
	},
	{
		"type":"VEC2",
		"bufferView":9,
		"componentType":5126,
		"count":166,
		"byteOffset":24,
		"min":[0.0,
		0.0],
		"max":[1.0,
		1.0]
	},
	{
		"type":"SCALAR",
		"bufferView":10,
		"componentType":5123,
		"count":612,
		"byteOffset":0,
		"min":[0],
		"max":[165]
	},
	{
		"type":"VEC3",
		"bufferView":11,
		"componentType":5126,
		"count":166,
		"byteOffset":0,
		"min":[-1.1421884298324586,
		-1.9988298416137696,
		-0.5710942149162293],
		"max":[1.1421884298324586,
		1.9988298416137696,
		0.5710942149162293]
	},
	{
		"type":"VEC3",
		"bufferView":11,
		"componentType":5126,
		"count":166,
		"byteOffset":12,
		"min":[-0.983273983001709,
		-0.9865115880966187,
		-0.983273983001709],
		"max":[0.983273983001709,
		0.9865115880966187,
		0.983273983001709]
	},
	{
		"type":"VEC2",
		"bufferView":11,
		"componentType":5126,
		"count":166,
		"byteOffset":24,
		"min":[0.0,
		0.0],
		"max":[1.0,
		1.0]
	},
	{
		"type":"SCALAR",
		"bufferView":12,
		"componentType":5123,
		"count":612,
		"byteOffset":0,
		"min":[0],
		"max":[165]
	},
	{
		"type":"VEC3",
		"bufferView":13,
		"componentType":5126,
		"count":166,
		"byteOffset":0,
		"min":[-1.1421884298324586,
		-1.9988298416137696,
		-0.5710942149162293],
		"max":[1.1421884298324586,
		1.9988298416137696,
		0.5710942149162293]
	},
	{
		"type":"VEC3",
		"bufferView":13,
		"componentType":5126,
		"count":166,
		"byteOffset":12,
		"min":[-0.983273983001709,
		-0.9865115880966187,
		-0.983273983001709],
		"max":[0.983273983001709,
		0.9865115880966187,
		0.983273983001709]
	},
	{
		"type":"VEC2",
		"bufferView":13,
		"componentType":5126,
		"count":166,
		"byteOffset":24,
		"min":[0.0,
		0.0],
		"max":[1.0,
		1.0]
	},
	{
		"type":"SCALAR",
		"bufferView":14,
		"componentType":5123,
		"count":2862,
		"byteOffset":0,
		"min":[0],
		"max":[591]
	},
	{
		"type":"VEC3",
		"bufferView":15,
		"componentType":5126,
		"count":592,
		"byteOffset":0,
		"min":[-6.841094970703125,
		-5.710942268371582,
		-6.850121021270752],
		"max":[6.85313081741333,
		5.710942268371582,
		6.850121021270752]
	},
	{
		"type":"VEC3",
		"bufferView":15,
		"componentType":5126,
		"count":592,
		"byteOffset":12,
		"min":[-0.9982437491416931,
		-1.0,
		-0.9995608925819397],
		"max":[1.0,
		1.0,
		0.9995608925819397]
	},
	{
		"type":"VEC2",
		"bufferView":15,
		"componentType":5126,
		"count":592,
		"byteOffset":24,
		"min":[0.0,
		0.0],
		"max":[1.0,
		1.0]
	},
	{
		"type":"SCALAR",
		"bufferView":16,
		"componentType":5123,
		"count":1200,
		"byteOffset":0,
		"min":[0],
		"max":[463]
	},
	{
		"type":"VEC3",
		"bufferView":17,
		"componentType":5126,
		"count":464,
		"byteOffset":0,
		"min":[-35.466129302978519,
		13.210899353027344,
		-8.516928672790528],
		"max":[31.317018508911134,
		27.675556182861329,
		57.15890884399414]
	},
	{
		"type":"VEC3",
		"bufferView":17,
		"componentType":5126,
		"count":464,
		"byteOffset":12,
		"min":[-0.4746566116809845,
		0.8125444054603577,
		-0.4095674157142639],
		"max":[0.29748833179473879,
		0.9995468854904175,
		0.3984450101852417]
	},
	{
		"type":"VEC2",
		"bufferView":17,
		"componentType":5126,
		"count":464,
		"byteOffset":24,
		"min":[0.30073562264442446,
		0.45199185609817507],
		"max":[0.6762534379959106,
		0.8211889266967773]
	},
	{
		"type":"SCALAR",
		"bufferView":18,
		"componentType":5123,
		"count":648,
		"byteOffset":0,
		"min":[0],
		"max":[173]
	},
	{
		"type":"VEC3",
		"bufferView":19,
		"componentType":5126,
		"count":174,
		"byteOffset":0,
		"min":[-36.24773406982422,
		-6.472809314727783,
		-29.77492332458496],
		"max":[36.24773406982422,
		6.472809314727783,
		29.77492332458496]
	},
	{
		"type":"VEC3",
		"bufferView":19,
		"componentType":5126,
		"count":174,
		"byteOffset":12,
		"min":[-0.9832730293273926,
		-1.0,
		-0.9832738637924194],
		"max":[0.9832730293273926,
		1.0,
		0.983273983001709]
	},
	{
		"type":"VEC2",
		"bufferView":19,
		"componentType":5126,
		"count":174,
		"byteOffset":24,
		"min":[0.0,
		0.0],
		"max":[1.0,
		1.0]
	},
	{
		"type":"SCALAR",
		"bufferView":20,
		"componentType":5123,
		"count":24,
		"byteOffset":0,
		"min":[0],
		"max":[15]
	},
	{
		"type":"VEC3",
		"bufferView":21,
		"componentType":5126,
		"count":16,
		"byteOffset":0,
		"min":[-33.1890754699707,
		4.425113677978516,
		-27.2624568939209],
		"max":[33.1890754699707,
		17.3707332611084,
		27.2624568939209]
	},
	{
		"type":"VEC3",
		"bufferView":21,
		"componentType":5126,
		"count":16,
		"byteOffset":12,
		"min":[-1.0,
		0.0,
		-1.0],
		"max":[1.0,
		0.0,
		1.0]
	},
	{
		"type":"VEC2",
		"bufferView":21,
		"componentType":5126,
		"count":16,
		"byteOffset":24,
		"min":[0.0,
		0.1582406759262085],
		"max":[1.0,
		0.41293835639953616]
	}],
	"bufferViews":[{
		"buffer":0,
		"byteOffset":0,
		"byteLength":1224,
		"target":34963
	},
	{
		"buffer":0,
		"byteOffset":1224,
		"byteLength":5312,
		"target":34962,
		"byteStride":32
	},
	{
		"buffer":1,
		"byteOffset":0,
		"byteLength":1224,
		"target":34963
	},
	{
		"buffer":1,
		"byteOffset":1224,
		"byteLength":5312,
		"target":34962,
		"byteStride":32
	},
	{
		"buffer":2,
		"byteOffset":0,
		"byteLength":1224,
		"target":34963
	},
	{
		"buffer":2,
		"byteOffset":1224,
		"byteLength":5312,
		"target":34962,
		"byteStride":32
	},
	{
		"buffer":3,
		"byteOffset":0,
		"byteLength":1224,
		"target":34963
	},
	{
		"buffer":3,
		"byteOffset":1224,
		"byteLength":5312,
		"target":34962,
		"byteStride":32
	},
	{
		"buffer":4,
		"byteOffset":0,
		"byteLength":1224,
		"target":34963
	},
	{
		"buffer":4,
		"byteOffset":1224,
		"byteLength":5312,
		"target":34962,
		"byteStride":32
	},
	{
		"buffer":5,
		"byteOffset":0,
		"byteLength":1224,
		"target":34963
	},
	{
		"buffer":5,
		"byteOffset":1224,
		"byteLength":5312,
		"target":34962,
		"byteStride":32
	},
	{
		"buffer":6,
		"byteOffset":0,
		"byteLength":1224,
		"target":34963
	},
	{
		"buffer":6,
		"byteOffset":1224,
		"byteLength":5312,
		"target":34962,
		"byteStride":32
	},
	{
		"buffer":7,
		"byteOffset":0,
		"byteLength":5724,
		"target":34963
	},
	{
		"buffer":7,
		"byteOffset":5724,
		"byteLength":18944,
		"target":34962,
		"byteStride":32
	},
	{
		"buffer":8,
		"byteOffset":0,
		"byteLength":2400,
		"target":34963
	},
	{
		"buffer":8,
		"byteOffset":2400,
		"byteLength":14848,
		"target":34962,
		"byteStride":32
	},
	{
		"buffer":9,
		"byteOffset":0,
		"byteLength":1296,
		"target":34963
	},
	{
		"buffer":9,
		"byteOffset":1296,
		"byteLength":5568,
		"target":34962,
		"byteStride":32
	},
	{
		"buffer":10,
		"byteOffset":0,
		"byteLength":48,
		"target":34963
	},
	{
		"buffer":10,
		"byteOffset":48,
		"byteLength":512,
		"target":34962,
		"byteStride":32
	}],
	"buffers":[{
		"uri":"data:application/octet-stream;base64,",
		"byteLength":6536
	},
	{
		"uri":"data:application/octet-stream;base64,",
		"byteLength":6536
	},
	{
		"uri":"data:application/octet-stream;base64,",
		"byteLength":6536
	},
	{
		"uri":"data:application/octet-stream;base64,",
		"byteLength":6536
	},
	{
		"uri":"data:application/octet-stream;base64,",
		"byteLength":6536
	},
	{
		"uri":"data:application/octet-stream;base64,",
		"byteLength":6536
	},
	{
		"uri":"data:application/octet-stream;base64,",
		"byteLength":6536
	},
	{
		"uri":"data:application/octet-stream;base64,",
		"byteLength":24668
	},
	{
		"uri":"data:application/octet-stream;base64,",
		"byteLength":17248
	},
	{
		"uri":"data:application/octet-stream;base64,",
		"byteLength":6864
	},
	{
		"uri":"data:application/octet-stream;base64,",
		"byteLength":560
	}]
}